<svg width="336" height="128" viewBox="0 0 336 128" fill="none" xmlns="http://www.w3.org/2000/svg">
<g clip-path="url(#clip0_5_2)">
<mask id="mask0_5_2" style="mask-type:luminance" maskUnits="userSpaceOnUse" x="0" y="0" width="336" height="128">
<path d="M336 0H0V128H336V0Z" fill="white"/>
</mask>
<g mask="url(#mask0_5_2)">
<path d="M55.1677 29.0075C50.7871 29.0075 47.31 33.3504 47.1782 38.6053C47.1721 38.6608 47.1691 38.7166 47.1693 38.7725V38.8255V38.8276C47.1691 38.8557 47.1657 38.883 47.1657 38.9112C47.165 38.9547 47.1662 38.9983 47.1693 39.0417L47.1586 45.3709C47.1579 45.4654 47.1663 45.5598 47.1835 45.6523C47.1835 45.6543 47.1835 45.6563 47.1835 45.6584C47.2636 48.5667 48.1788 51.2356 49.6582 53.2885C48.1076 55.4113 47.1709 58.2025 47.1425 61.2489C47.135 61.3111 47.1314 61.3738 47.1318 61.4365L47.0944 84.0316C47.0943 84.0343 47.0943 84.0371 47.0944 84.0398C47.0943 84.0425 47.0944 84.0452 47.0944 84.0479V84.2192C47.094 84.2944 47.0994 84.3694 47.1104 84.4435C47.1104 84.4462 47.1104 84.4489 47.1104 84.4517C47.1633 87.8093 48.3096 90.8581 50.1756 93.0259C48.2458 95.2545 47.0699 98.4305 47.0712 101.883V101.886C47.0677 101.928 47.0659 101.97 47.0659 102.012L47.0391 118.082C47.0391 118.087 47.0391 118.092 47.0391 118.096C47.0391 118.098 47.0391 118.1 47.0391 118.102V118.266C47.0383 118.344 47.0436 118.423 47.0552 118.5C47.2276 123.711 50.6879 128 55.0411 128C57.7697 128 60.1468 126.311 61.5872 123.771C62.037 124.015 62.5005 124.233 62.9913 124.389C67.9181 125.954 72.9164 122.17 74.1295 116.169C74.1787 115.926 74.2114 115.683 74.2473 115.44C78.6563 117.341 83.722 115.163 86.1528 110.042C88.0866 105.968 87.9354 101.107 86.0832 97.3149C87.3543 96.0127 88.441 94.3879 89.2537 92.4803C92.3072 85.3131 90.5478 76.5563 85.2946 71.9878C85.9399 70.3701 86.3169 68.5642 86.3169 66.6476C86.3169 60.7446 82.8562 55.7431 78.24 54.7555C80.1692 49.0738 78.7941 42.3215 74.5806 38.5287C72.1375 36.3297 69.1781 35.5911 66.3949 36.1613C65.2438 36.3972 64.1273 36.8688 63.0854 37.5418C62.5453 32.7783 59.2479 29.0084 55.1672 29.0084L55.1677 29.0075ZM45.333 29.0258C42.5903 29.0527 39.856 29.377 37.1669 29.9944L37.1722 29.9985L37.174 30.0005C37.2089 30.0829 37.2428 30.1658 37.2757 30.2493L37.2989 30.3145C38.1614 32.6796 38.1675 35.3391 37.3158 37.7093C36.4641 40.0794 34.8243 41.9665 32.7564 42.9562C30.6888 43.9452 28.3624 43.9564 26.2876 42.9873C24.2128 42.0182 22.5591 40.1481 21.6894 37.7872C21.6507 37.6738 21.6138 37.5596 21.5788 37.4446C16.9208 41.04 12.9191 45.6364 9.79658 50.9779C11.6145 51.9979 13.0522 53.7291 13.8484 55.8573L13.8734 55.9246C14.7353 58.2894 14.741 60.9484 13.8894 63.3181C13.0378 65.6877 11.3983 67.5745 9.33083 68.5642C7.42018 69.4753 5.28357 69.5544 3.32535 68.7864C2.18658 75.233 2.18234 81.8742 3.31286 88.3226C3.40191 88.2726 3.49173 88.2243 3.58227 88.1779C5.6466 87.1802 7.97291 87.1592 10.0508 88.1195C12.1286 89.0797 13.7883 90.9428 14.6657 93.2999L14.6906 93.3672C15.552 95.7318 15.5575 98.3902 14.7059 100.759C13.8543 103.129 12.2152 105.015 10.1481 106.005C10.0383 106.053 9.92771 106.098 9.81627 106.141C13.0084 111.562 17.1073 116.208 21.8771 119.811C22.7423 117.534 24.3406 115.724 26.3411 114.757C28.4056 113.758 30.7324 113.737 32.8107 114.697C34.889 115.657 36.549 117.521 37.4263 119.879L37.4513 119.946C38.2818 122.236 38.3112 124.803 37.5333 127.117C40.1054 127.673 42.7162 127.962 45.3337 127.98V98.7688C41.9222 98.6716 38.6076 97.4522 35.7872 95.2567C32.9667 93.0611 30.76 89.9826 29.4317 86.3902C27.6076 81.4393 27.577 75.8635 29.3465 70.8868C31.116 65.9101 34.5411 61.9392 38.8699 59.8457C40.9192 58.8622 43.1119 58.3275 45.3339 58.2694V29.0252L45.333 29.0258ZM55.1677 31.6175C58.2801 31.6175 60.8877 34.8048 60.8877 38.9111C60.8862 39.0609 60.9074 39.2099 60.9501 39.3515C60.3312 40.0242 59.7605 40.7822 59.2658 41.6455C59.1815 41.7888 59.123 41.9499 59.0935 42.1193C59.0641 42.2888 59.0644 42.4632 59.0944 42.6325C59.1243 42.8018 59.1834 42.9626 59.2682 43.1056C59.353 43.2486 59.4618 43.3709 59.5882 43.4655C59.7147 43.5601 59.8563 43.6251 60.0049 43.6566C60.1535 43.6882 60.3061 43.6858 60.4539 43.6494C60.6016 43.6131 60.7416 43.5436 60.8657 43.4449C60.9898 43.3463 61.0955 43.2205 61.1767 43.0748C64.0014 38.1446 69.2766 37.0744 73.1681 40.577C77.0596 44.0797 77.9839 51.019 75.1592 55.9497C73.5532 58.7528 71.1406 60.2766 68.656 60.454C68.4067 60.4718 68.1567 60.4593 67.9067 60.45C67.8498 57.4168 66.8173 54.4239 64.8307 52.2407C65.9519 50.2897 66.6224 47.9204 66.6435 45.3712C66.6461 45.199 66.619 45.0279 66.5635 44.8678C66.5081 44.7076 66.4254 44.5616 66.3204 44.4382C66.2153 44.3147 66.0899 44.2162 65.9514 44.1484C65.8129 44.0806 65.664 44.0448 65.5133 44.0431C65.3626 44.0413 65.2131 44.0737 65.0734 44.1382C64.9337 44.2028 64.8066 44.2984 64.6994 44.4194C64.5922 44.5404 64.5069 44.6844 64.4486 44.8432C64.3904 45.002 64.3601 45.1725 64.3597 45.3447C64.3158 50.6526 60.8999 54.7692 56.8288 54.7162C52.7577 54.6632 49.4056 50.4549 49.4495 45.1469C49.4503 45.1034 49.4491 45.0598 49.446 45.0164C49.4449 45.0076 49.4437 44.9987 49.4424 44.9899L49.4513 39.4641L49.4531 38.8238C49.4904 34.7605 52.0777 31.6175 55.1677 31.6175ZM63.3642 54.2606C66.1154 57.4317 66.3878 62.9148 63.9066 66.4888C63.7093 66.7729 63.5024 67.0357 63.2857 67.278C63.1873 67.3879 63.0807 67.4783 62.9788 67.5797C62.8995 67.4504 62.827 67.3153 62.7433 67.1903C61.2506 64.9612 59.0692 63.4312 56.5326 63.1489C56.4953 63.144 56.4578 63.1413 56.4202 63.1407C56.1237 63.1353 55.8369 63.262 55.6206 63.4939C55.4043 63.7258 55.2755 64.0448 55.2613 64.3834C55.2472 64.722 55.3489 65.0536 55.5449 65.308C55.7408 65.5624 56.0157 65.7197 56.3114 65.7466C60.0395 66.1615 62.8905 70.3421 62.5453 75.2159C62.4913 75.978 62.3622 76.7055 62.1688 77.3895C62.1192 77.5537 62.0987 77.7274 62.1086 77.9007C62.1185 78.074 62.1585 78.2433 62.2264 78.3987C62.2942 78.554 62.3886 78.6924 62.5038 78.8056C62.619 78.9188 62.7529 79.0045 62.8975 79.0578C63.0421 79.1112 63.1945 79.131 63.3459 79.1161C63.4973 79.1012 63.6446 79.052 63.7791 78.9712C63.9136 78.8905 64.0327 78.7799 64.1293 78.6459C64.226 78.5119 64.2982 78.3572 64.3419 78.1909C64.5895 77.3149 64.7536 76.3886 64.8218 75.426C64.9594 73.4834 64.6881 71.6013 64.0957 69.9165C64.6738 69.4012 65.2134 68.8025 65.6943 68.1099C66.7376 66.6072 67.4077 64.8671 67.7175 63.0613C70.3797 63.1943 73.0356 62.1166 75.1271 59.9742C75.3078 59.7891 75.4833 59.5959 75.6552 59.3951C76.171 58.7927 76.6463 58.1203 77.07 57.3805C77.1017 57.3253 77.1266 57.2668 77.1575 57.2112C80.9646 57.5852 84.0336 61.5926 84.0336 66.6459C84.0336 68.0104 83.8075 69.3017 83.402 70.4671C83.3863 70.5122 83.3647 70.5529 83.3485 70.5976C81.9781 69.8017 80.5429 69.3131 79.1004 69.1499C77.7029 68.9918 76.3058 69.1356 74.9629 69.5333C74.5284 68.1448 73.7098 66.9246 72.5524 66.1301C72.3568 65.9918 72.1292 65.9243 71.8994 65.9363C71.6534 65.9495 71.4177 66.0532 71.2274 66.232C71.0372 66.4108 70.9026 66.6551 70.8438 66.9285C70.7851 67.2018 70.8052 67.4896 70.9012 67.7488C70.9972 68.0081 71.164 68.2248 71.3767 68.3669C72.8826 69.4008 73.4961 71.9193 72.6292 73.9028C72.4936 74.2131 72.3333 74.4878 72.1546 74.7266C72.052 74.856 71.9732 75.0076 71.9228 75.1724C71.8724 75.3373 71.8515 75.512 71.8613 75.6862C71.871 75.8605 71.9113 76.0307 71.9797 76.1868C72.048 76.343 72.1431 76.4819 72.2593 76.5953C72.3755 76.7086 72.5104 76.7942 72.656 76.847C72.8016 76.8997 72.9551 76.9185 73.1072 76.9023C73.2593 76.886 73.407 76.835 73.5416 76.7524C73.6761 76.6697 73.7948 76.557 73.8906 76.421C74.192 76.0182 74.4548 75.5663 74.6721 75.0691C75.082 74.1312 75.2874 73.1251 75.3144 72.1267C77.7645 71.3268 80.4272 71.6156 82.8542 73.2401C87.981 76.6716 89.9808 84.8106 87.2005 91.3366C85.8224 94.5712 83.5646 96.7617 81.0308 97.7494C79.8905 98.1939 78.7609 98.0751 77.5463 97.3498C76.3317 96.6245 75.0611 95.2474 73.9137 93.1982C73.9079 93.1879 73.9019 93.1778 73.8959 93.1677C75.4965 91.7203 76.5653 89.4274 76.6595 86.8425C76.6679 86.6683 76.6457 86.4939 76.5941 86.3297C76.5425 86.1655 76.4626 86.0147 76.3591 85.8864C76.2557 85.7581 76.1307 85.6548 75.9917 85.5826C75.8527 85.5104 75.7025 85.4708 75.5498 85.4661C75.2473 85.4568 74.9539 85.5852 74.7341 85.823C74.5143 86.0608 74.3861 86.3886 74.3776 86.7344C74.2603 89.9511 72.1495 92.2918 69.746 92.1541C69.3703 92.1326 69.0102 92.0517 68.6666 91.9197C68.5244 91.865 68.3741 91.8429 68.2244 91.8547C68.0747 91.8664 67.9285 91.9117 67.7942 91.988C67.6598 92.0643 67.5399 92.1701 67.4413 92.2994C67.3428 92.4287 67.2674 92.5789 67.2196 92.7414C67.1718 92.9039 67.1525 93.0756 67.1628 93.2467C67.173 93.4178 67.2127 93.5849 67.2795 93.7384C67.3462 93.892 67.4388 94.029 67.5519 94.1417C67.665 94.2543 67.7964 94.3404 67.9386 94.3951C68.4758 94.6015 69.0446 94.7264 69.6318 94.7601C70.4229 94.8054 71.1819 94.6715 71.8941 94.4032C71.921 94.4736 71.9532 94.5412 71.9905 94.6051C73.297 96.9383 74.8121 98.663 76.4883 99.6639C78.1646 100.665 80.0312 100.898 81.7677 100.221C82.6194 99.8886 83.4378 99.4364 84.2173 98.8912C85.5503 101.858 85.639 105.649 84.1459 108.795C82.0742 113.16 77.9031 114.689 74.3825 112.665C74.1346 107.959 71.5251 103.745 67.5991 102.459C67.9092 100.294 67.5245 97.9852 66.3788 96.0731C66.2728 95.8907 66.1284 95.7416 65.9588 95.6397C65.7891 95.5378 65.5998 95.4863 65.4082 95.49C65.246 95.493 65.0861 95.5355 64.9394 95.6146C64.7926 95.6938 64.6623 95.8078 64.5571 95.949C64.452 96.0903 64.3743 96.2555 64.3294 96.4337C64.2845 96.6119 64.2733 96.799 64.2967 96.9826C64.3019 97.0258 64.3091 97.0686 64.3181 97.111C64.3523 97.2676 64.4116 97.4155 64.4929 97.5474C66.0055 100.072 65.5771 103.736 63.5991 105.598C63.2897 105.889 62.9654 106.118 62.632 106.291C62.4895 106.357 62.36 106.455 62.2515 106.58C62.143 106.704 62.0577 106.853 62.0006 107.016C61.9435 107.179 61.9159 107.354 61.9194 107.53C61.9229 107.706 61.9574 107.879 62.0209 108.039C62.0844 108.199 62.1756 108.343 62.289 108.462C62.4023 108.581 62.5355 108.672 62.6806 108.731C62.8256 108.789 62.9795 108.814 63.1331 108.803C63.2866 108.792 63.4366 108.745 63.574 108.666C64.092 108.398 64.5899 108.046 65.0513 107.612C65.8438 106.866 66.4584 105.949 66.8997 104.941C66.9068 104.944 66.9139 104.946 66.9211 104.949C70.5595 106.105 72.8598 110.846 71.9025 115.581C71.1845 119.132 68.9218 121.545 66.3002 122.043C66.0817 122.084 65.861 122.114 65.6383 122.128C65.1928 122.157 64.7386 122.13 64.2841 122.045C64.0569 122.002 63.83 121.946 63.6026 121.874C63.2416 121.759 62.9011 121.599 62.5695 121.419C62.8722 120.375 63.0441 119.258 63.0441 118.095C63.0478 117.754 62.9345 117.425 62.7286 117.179C62.5227 116.932 62.2405 116.787 61.9424 116.775C61.6442 116.763 61.3538 116.885 61.1332 117.114C60.9127 117.344 60.7795 117.663 60.7622 118.003C60.7606 118.034 60.7601 118.065 60.7604 118.095C60.7604 121.945 58.4677 124.987 55.6166 125.352C55.4265 125.377 55.2349 125.389 55.0403 125.389C51.9294 125.389 49.3247 122.205 49.3221 118.101C49.3221 118.099 49.3221 118.097 49.3221 118.095L49.3488 102.491C49.3523 102.437 49.3529 102.383 49.3506 102.33C49.1536 97.1101 52.2846 92.8033 56.2624 92.4402C56.6984 93.7893 57.4226 95.0203 58.4356 95.9739C58.8969 96.4082 59.3931 96.7617 59.911 97.0301C60.048 97.104 60.1965 97.146 60.3478 97.1536C60.4991 97.1613 60.6503 97.1344 60.7924 97.0747C60.9346 97.0149 61.0649 96.9235 61.1759 96.8056C61.2868 96.6877 61.3761 96.5458 61.4386 96.3881C61.5011 96.2304 61.5355 96.0601 61.5398 95.8871C61.5441 95.7141 61.5183 95.5418 61.4638 95.3802C61.4093 95.2187 61.3272 95.0712 61.2224 94.9463C61.1175 94.8214 60.992 94.7216 60.853 94.6526C60.5197 94.4799 60.1954 94.2505 59.886 93.9594C57.908 92.0975 57.4796 88.4336 58.9921 85.9092C59.1137 85.7124 59.1851 85.481 59.1987 85.2406C59.2122 85.0002 59.1673 84.7602 59.0688 84.5472C58.9704 84.3342 58.8223 84.1565 58.6409 84.0338C58.4595 83.911 58.2519 83.8481 58.0412 83.8518C57.8559 83.8552 57.6742 83.9101 57.5116 84.0117C57.349 84.1133 57.2105 84.2586 57.108 84.435C56.1281 86.0705 55.7042 87.9968 55.7949 89.8751C54.4088 90.0516 53.12 90.5783 51.9803 91.3861C50.3763 89.6325 49.3434 87.016 49.3773 84.0741L49.3951 72.9086L49.4147 61.5938C49.4165 61.5592 49.4171 61.5245 49.4165 61.4899C49.3961 59.0318 50.1152 56.7996 51.2916 55.1138C52.8455 56.4792 54.7385 57.2993 56.8011 57.3261C59.3323 57.3591 61.6244 56.1835 63.3633 54.2615L63.3642 54.2606Z" fill="url(#paint0_linear_5_2)"/>
<path d="M120.765 96.208C119.298 96.208 117.703 96.1713 115.98 96.098C114.293 96.0247 112.625 95.9147 110.975 95.768C109.362 95.6213 107.913 95.4747 106.63 95.328V88.233C107.987 88.343 109.343 88.453 110.7 88.563C112.093 88.673 113.413 88.7463 114.66 88.783C115.907 88.8197 116.952 88.838 117.795 88.838C119.555 88.838 120.893 88.783 121.81 88.673C122.727 88.5263 123.405 88.3247 123.845 88.068C124.138 87.8113 124.34 87.5363 124.45 87.243C124.597 86.9497 124.688 86.6013 124.725 86.198C124.762 85.7947 124.78 85.3363 124.78 84.823C124.78 84.053 124.725 83.448 124.615 83.008C124.542 82.5313 124.358 82.1647 124.065 81.908C123.808 81.6513 123.405 81.468 122.855 81.358C122.305 81.2113 121.59 81.083 120.71 80.973L112.955 79.983C111.452 79.7997 110.223 79.433 109.27 78.883C108.317 78.2963 107.565 77.5263 107.015 76.573C106.465 75.6197 106.08 74.5013 105.86 73.218C105.64 71.898 105.53 70.4313 105.53 68.818C105.53 66.3247 105.897 64.3447 106.63 62.878C107.363 61.3747 108.372 60.238 109.655 59.468C110.975 58.6613 112.497 58.1297 114.22 57.873C115.98 57.6163 117.887 57.488 119.94 57.488C121.407 57.488 122.928 57.543 124.505 57.653C126.082 57.7263 127.567 57.8547 128.96 58.038C130.353 58.1847 131.508 58.368 132.425 58.588V65.518C131.508 65.3713 130.427 65.2613 129.18 65.188C127.97 65.078 126.705 65.0047 125.385 64.968C124.065 64.8947 122.818 64.858 121.645 64.858C120.215 64.858 119.078 64.913 118.235 65.023C117.392 65.0963 116.732 65.2613 116.255 65.518C115.742 65.8113 115.412 66.1963 115.265 66.673C115.155 67.1497 115.1 67.7547 115.1 68.488C115.1 69.4047 115.173 70.1197 115.32 70.633C115.467 71.1097 115.797 71.4397 116.31 71.623C116.823 71.8063 117.612 71.9713 118.675 72.118L126.21 72.998C127.237 73.108 128.172 73.2913 129.015 73.548C129.895 73.8047 130.683 74.208 131.38 74.758C132.113 75.308 132.718 76.0963 133.195 77.123C133.452 77.5997 133.653 78.1863 133.8 78.883C133.947 79.543 134.075 80.313 134.185 81.193C134.295 82.073 134.35 83.063 134.35 84.163C134.35 86.3263 134.13 88.1597 133.69 89.663C133.25 91.1297 132.627 92.303 131.82 93.183C131.013 94.0263 130.042 94.6863 128.905 95.163C127.768 95.603 126.503 95.878 125.11 95.988C123.753 96.1347 122.305 96.208 120.765 96.208ZM140.302 95.768V54.903H149.102V78.443H150.807L158.122 67.718H167.527L158.012 81.138L167.692 95.768H157.902L150.807 85.153H149.102V95.768H140.302ZM171.72 61.998V54.903H180.795V61.998H171.72ZM171.83 95.768V67.718H180.74V95.768H171.83ZM187.567 106.713V67.718H195.927L196.147 71.128H196.642C197.229 70.0647 197.926 69.258 198.732 68.708C199.576 68.158 200.511 67.7913 201.537 67.608C202.564 67.388 203.591 67.278 204.617 67.278C206.267 67.278 207.661 67.498 208.797 67.938C209.971 68.378 210.924 69.148 211.657 70.248C212.427 71.3113 212.977 72.778 213.307 74.648C213.674 76.518 213.857 78.8647 213.857 81.688C213.857 84.4747 213.674 86.803 213.307 88.673C212.977 90.543 212.446 92.028 211.712 93.128C210.979 94.228 210.026 95.0163 208.852 95.493C207.716 95.9697 206.322 96.208 204.672 96.208C203.609 96.208 202.582 96.1163 201.592 95.933C200.602 95.7497 199.704 95.4197 198.897 94.943C198.127 94.4297 197.449 93.7147 196.862 92.798H196.367V106.713H187.567ZM200.657 88.948C201.647 88.948 202.436 88.8747 203.022 88.728C203.609 88.5813 204.031 88.288 204.287 87.848C204.581 87.3713 204.764 86.6563 204.837 85.703C204.947 84.7497 205.002 83.4297 205.002 81.743C205.002 80.0563 204.947 78.7363 204.837 77.783C204.764 76.793 204.581 76.078 204.287 75.638C204.031 75.1613 203.609 74.868 203.022 74.758C202.436 74.6113 201.647 74.538 200.657 74.538C199.594 74.538 198.769 74.6847 198.182 74.978C197.632 75.2347 197.211 75.693 196.917 76.353C196.697 76.9397 196.551 77.6913 196.477 78.608C196.404 79.488 196.367 80.533 196.367 81.743C196.367 82.9897 196.404 84.053 196.477 84.933C196.551 85.813 196.679 86.5097 196.862 87.023C197.156 87.7563 197.596 88.2697 198.182 88.563C198.769 88.8197 199.594 88.948 200.657 88.948ZM234.095 96.208C232.628 96.208 231.033 96.1713 229.31 96.098C227.623 96.0247 225.955 95.9147 224.305 95.768C222.692 95.6213 221.243 95.4747 219.96 95.328V88.233C221.317 88.343 222.673 88.453 224.03 88.563C225.423 88.673 226.743 88.7463 227.99 88.783C229.237 88.8197 230.282 88.838 231.125 88.838C232.885 88.838 234.223 88.783 235.14 88.673C236.057 88.5263 236.735 88.3247 237.175 88.068C237.468 87.8113 237.67 87.5363 237.78 87.243C237.927 86.9497 238.018 86.6013 238.055 86.198C238.092 85.7947 238.11 85.3363 238.11 84.823C238.11 84.053 238.055 83.448 237.945 83.008C237.872 82.5313 237.688 82.1647 237.395 81.908C237.138 81.6513 236.735 81.468 236.185 81.358C235.635 81.2113 234.92 81.083 234.04 80.973L226.285 79.983C224.782 79.7997 223.553 79.433 222.6 78.883C221.647 78.2963 220.895 77.5263 220.345 76.573C219.795 75.6197 219.41 74.5013 219.19 73.218C218.97 71.898 218.86 70.4313 218.86 68.818C218.86 66.3247 219.227 64.3447 219.96 62.878C220.693 61.3747 221.702 60.238 222.985 59.468C224.305 58.6613 225.827 58.1297 227.55 57.873C229.31 57.6163 231.217 57.488 233.27 57.488C234.737 57.488 236.258 57.543 237.835 57.653C239.412 57.7263 240.897 57.8547 242.29 58.038C243.683 58.1847 244.838 58.368 245.755 58.588V65.518C244.838 65.3713 243.757 65.2613 242.51 65.188C241.3 65.078 240.035 65.0047 238.715 64.968C237.395 64.8947 236.148 64.858 234.975 64.858C233.545 64.858 232.408 64.913 231.565 65.023C230.722 65.0963 230.062 65.2613 229.585 65.518C229.072 65.8113 228.742 66.1963 228.595 66.673C228.485 67.1497 228.43 67.7547 228.43 68.488C228.43 69.4047 228.503 70.1197 228.65 70.633C228.797 71.1097 229.127 71.4397 229.64 71.623C230.153 71.8063 230.942 71.9713 232.005 72.118L239.54 72.998C240.567 73.108 241.502 73.2913 242.345 73.548C243.225 73.8047 244.013 74.208 244.71 74.758C245.443 75.308 246.048 76.0963 246.525 77.123C246.782 77.5997 246.983 78.1863 247.13 78.883C247.277 79.543 247.405 80.313 247.515 81.193C247.625 82.073 247.68 83.063 247.68 84.163C247.68 86.3263 247.46 88.1597 247.02 89.663C246.58 91.1297 245.957 92.303 245.15 93.183C244.343 94.0263 243.372 94.6863 242.235 95.163C241.098 95.603 239.833 95.878 238.44 95.988C237.083 96.1347 235.635 96.208 234.095 96.208ZM262.157 96.208C260.287 96.208 258.783 95.9697 257.647 95.493C256.51 95.0163 255.648 94.3197 255.062 93.403C254.475 92.4863 254.09 91.3497 253.907 89.993C253.723 88.6363 253.632 87.0597 253.632 85.263V67.718H262.432V82.568C262.432 84.0713 262.468 85.263 262.542 86.143C262.652 86.9863 262.835 87.6097 263.092 88.013C263.348 88.4163 263.733 88.673 264.247 88.783C264.76 88.8563 265.457 88.893 266.337 88.893C267.29 88.893 268.042 88.8013 268.592 88.618C269.178 88.398 269.6 88.0497 269.857 87.573C270.113 87.0963 270.278 86.4363 270.352 85.593C270.462 84.713 270.517 83.6313 270.517 82.348V67.718H279.372V95.768H270.957L270.737 92.358H270.242C269.728 93.3113 269.068 94.0813 268.262 94.668C267.455 95.218 266.538 95.603 265.512 95.823C264.485 96.0797 263.367 96.208 262.157 96.208ZM286.127 95.768V67.718H294.487L294.707 71.128H295.202C295.715 70.1747 296.357 69.423 297.127 68.873C297.933 68.2863 298.832 67.883 299.822 67.663C300.812 67.4063 301.875 67.278 303.012 67.278C305.212 67.278 306.88 67.5897 308.017 68.213C309.153 68.7997 309.96 69.7713 310.437 71.128H310.932C311.482 70.1747 312.16 69.423 312.967 68.873C313.773 68.2863 314.672 67.883 315.662 67.663C316.688 67.4063 317.77 67.278 318.907 67.278C321.29 67.278 323.05 67.6997 324.187 68.543C325.36 69.3863 326.13 70.6147 326.497 72.228C326.9 73.8413 327.102 75.8397 327.102 78.223V95.768H318.302V80.918C318.302 79.4147 318.247 78.2413 318.137 77.398C318.063 76.518 317.917 75.8763 317.697 75.473C317.477 75.0697 317.128 74.8313 316.652 74.758C316.175 74.648 315.552 74.593 314.782 74.593C313.938 74.593 313.26 74.703 312.747 74.923C312.233 75.1063 311.848 75.4363 311.592 75.913C311.335 76.3897 311.17 77.0497 311.097 77.893C311.06 78.7363 311.042 79.818 311.042 81.138V95.768H302.187V80.918C302.187 79.4147 302.15 78.2413 302.077 77.398C302.003 76.518 301.838 75.8763 301.582 75.473C301.362 75.0697 301.013 74.8313 300.537 74.758C300.097 74.648 299.492 74.593 298.722 74.593C297.878 74.593 297.2 74.703 296.687 74.923C296.173 75.1063 295.788 75.4363 295.532 75.913C295.275 76.3897 295.11 77.068 295.037 77.948C294.963 78.7913 294.927 79.8547 294.927 81.138V95.768H286.127Z" fill="url(#paint1_linear_5_2)"/>
</g>
</g>
<defs>
<linearGradient id="paint0_linear_5_2" x1="2.46811" y1="29.0075" x2="90.7518" y2="29.0075" gradientUnits="userSpaceOnUse">
<stop stop-color="#365FEF"/>
<stop offset="1" stop-color="#84F2F9"/>
</linearGradient>
<linearGradient id="paint1_linear_5_2" x1="219.5" y1="32.768" x2="219.5" y2="111.616" gradientUnits="userSpaceOnUse">
<stop stop-color="#392AE3"/>
<stop offset="1" stop-color="#A2EFF9" stop-opacity="0.83"/>
</linearGradient>
<clipPath id="clip0_5_2">
<rect width="336" height="128" fill="white"/>
</clipPath>
</defs>
</svg>
